<?xml version="1.0" encoding="UTF-8" standalone="no"?>
<!DOCTYPE svg PUBLIC "-//W3C//DTD SVG 1.1//EN"
 "http://www.w3.org/Graphics/SVG/1.1/DTD/svg11.dtd">
<!-- Generated by graphviz version 2.38.0 (20140413.2041)
 -->
<!-- Title: cpp2html Pages: 1 -->
<svg width="396pt" height="109pt"
 viewBox="0.00 0.00 395.97 109.00" xmlns="http://www.w3.org/2000/svg" xmlns:xlink="http://www.w3.org/1999/xlink">
<g id="graph0" class="graph" transform="scale(1 1) rotate(0) translate(4 105)">
<title>cpp2html</title>
<!-- readWS -->
<g id="node1" class="node"><title>readWS</title>
<ellipse fill="#7ccd7c" stroke="black" cx="95.9828" cy="-50.8701" rx="57.9655" ry="26.7407"/>
<text text-anchor="middle" x="95.9828" y="-54.6701" font-family="Times,serif" font-size="14.00">Just read</text>
<text text-anchor="middle" x="95.9828" y="-39.6701" font-family="Times,serif" font-size="14.00">WS</text>
</g>
<!-- readWS&#45;&gt;readWS -->
<g id="edge1" class="edge"><title>readWS&#45;&gt;readWS</title>
<path fill="none" stroke="black" d="M95.9828,-77.766C95.9828,-84.0755 95.9828,-89 95.9828,-89 95.9828,-89 20,-89 20,-89 20,-89 20,-3.55271e-15 20,-3.55271e-15 20,-3.55271e-15 95.9828,-3.55271e-15 95.9828,-0 95.9828,-0 95.9828,-13.9455 95.9828,-13.9455"/>
<polygon fill="black" stroke="black" points="92.4829,-13.9454 95.9828,-23.9455 99.4829,-13.9455 92.4829,-13.9454"/>
<text text-anchor="middle" x="10" y="-46.5443" font-family="Times,serif" font-size="12.00">WS</text>
</g>
<!-- readNon -->
<g id="node2" class="node"><title>readNon</title>
<ellipse fill="#7ccd7c" stroke="black" cx="264.983" cy="-50.8701" rx="57.9655" ry="26.7407"/>
<text text-anchor="middle" x="264.983" y="-54.6701" font-family="Times,serif" font-size="14.00">Just read</text>
<text text-anchor="middle" x="264.983" y="-39.6701" font-family="Times,serif" font-size="14.00">non&#45;WS</text>
</g>
<!-- readWS&#45;&gt;readNon -->
<g id="edge2" class="edge"><title>readWS&#45;&gt;readNon</title>
<path fill="none" stroke="black" d="M151.32,-59C151.32,-59 199.522,-59 199.522,-59"/>
<polygon fill="black" stroke="black" points="199.522,-62.5001 209.522,-59 199.521,-55.5001 199.522,-62.5001"/>
<text text-anchor="middle" x="175.421" y="-49.4" font-family="Times,serif" font-size="12.00">non&#45;WS</text>
</g>
<!-- readNon&#45;&gt;readWS -->
<g id="edge4" class="edge"><title>readNon&#45;&gt;readWS</title>
<path fill="none" stroke="black" d="M211.045,-41C211.045,-41 159.987,-41 159.987,-41"/>
<polygon fill="black" stroke="black" points="159.987,-37.5001 149.987,-41 159.987,-44.5001 159.987,-37.5001"/>
<text text-anchor="middle" x="175.516" y="-31.4" font-family="Times,serif" font-size="12.00">WS</text>
</g>
<!-- readNon&#45;&gt;readNon -->
<g id="edge3" class="edge"><title>readNon&#45;&gt;readNon</title>
<path fill="none" stroke="black" d="M264.983,-77.9891C264.983,-89.8008 264.983,-101 264.983,-101 264.983,-101 340.966,-101 340.966,-101 340.966,-101 340.966,-13 340.966,-13 340.966,-13 264.983,-13 264.983,-13 264.983,-13 264.983,-14.0751 264.983,-14.0751"/>
<polygon fill="black" stroke="black" points="261.483,-13.7507 264.983,-23.7507 268.483,-13.7508 261.483,-13.7507"/>
<text text-anchor="middle" x="364.466" y="-71.3679" font-family="Times,serif" font-size="12.00">non&#45;WS</text>
</g>
</g>
</svg>
